<svg preserveAspectRatio="none" width="100%" height="100%" overflow="visible" style="display: block;" viewBox="0 0 52 64.125" fill="none" xmlns="http://www.w3.org/2000/svg">
<g id="Group 515294" filter="url(#filter0_d_21_53200)">
<path id="Union" d="M30.9463 42.29C33.6113 42.2901 34.9394 45.4926 33.0215 47.3428C31.384 48.922 29.7905 50.4071 29 51C27 52.5 25 52.5 23 51C22.2096 50.4071 20.6164 48.9227 18.9785 47.3438C17.0594 45.4938 18.3872 42.2901 21.0527 42.29H30.9463ZM26 4C35.9411 4 44 12.0589 44 22C44 31.9411 35.9411 40 26 40C16.0589 40 8 31.9411 8 22C8 12.0589 16.0589 4 26 4Z" fill="var(--fill-0, white)"/>
<path id="Vector 76" d="M24.024 49.3137C23.411 48.8882 22.0654 47.7093 20.8011 46.5697C19.7903 45.6586 20.4405 44 21.8014 44H30.2001C31.5608 44 32.2111 45.6582 31.2006 46.5694C29.9368 47.709 28.5916 48.8881 27.9785 49.3137C26.6604 50.2288 25.3422 50.2288 24.024 49.3137Z" fill="var(--fill-0, #FAA21B)"/>
<circle id="Ellipse 28" cx="26" cy="22" r="15" fill="var(--fill-0, #FAA21B)"/>
</g>
<defs>
<filter id="filter0_d_21_53200" x="0" y="0" width="52" height="64.125" filterUnits="userSpaceOnUse" color-interpolation-filters="sRGB">
<feFlood flood-opacity="0" result="BackgroundImageFix"/>
<feColorMatrix in="SourceAlpha" type="matrix" values="0 0 0 0 0 0 0 0 0 0 0 0 0 0 0 0 0 0 127 0" result="hardAlpha"/>
<feOffset dy="4"/>
<feGaussianBlur stdDeviation="4"/>
<feComposite in2="hardAlpha" operator="out"/>
<feColorMatrix type="matrix" values="0 0 0 0 0 0 0 0 0 0 0 0 0 0 0 0 0 0 0.15 0"/>
<feBlend mode="normal" in2="BackgroundImageFix" result="effect1_dropShadow_21_53200"/>
<feBlend mode="normal" in="SourceGraphic" in2="effect1_dropShadow_21_53200" result="shape"/>
</filter>
</defs>
</svg>
